<?xml version="1.0" encoding="UTF-8" standalone="no"?>
<!-- Created with Inkscape (http://www.inkscape.org/) -->

<svg
   xmlns:dc="http://purl.org/dc/elements/1.1/"
   xmlns:cc="http://creativecommons.org/ns#"
   xmlns:rdf="http://www.w3.org/1999/02/22-rdf-syntax-ns#"
   xmlns:svg="http://www.w3.org/2000/svg"
   xmlns="http://www.w3.org/2000/svg"
   xmlns:sodipodi="http://sodipodi.sourceforge.net/DTD/sodipodi-0.dtd"
   xmlns:inkscape="http://www.inkscape.org/namespaces/inkscape"
   width="36.777084mm"
   height="36.777081mm"
   viewBox="0 0 36.777084 36.777081"
   version="1.1"
   id="svg8"
   inkscape:version="0.92.2 (5c3e80d, 2017-08-06)"
   sodipodi:docname="logo.svg">
  <defs
     id="defs2" />
  <sodipodi:namedview
     id="base"
     pagecolor="#ffffff"
     bordercolor="#666666"
     borderopacity="1.0"
     inkscape:pageopacity="0.0"
     inkscape:pageshadow="2"
     inkscape:zoom="0.98994949"
     inkscape:cx="-67.063206"
     inkscape:cy="106.12002"
     inkscape:document-units="mm"
     inkscape:current-layer="g957"
     showgrid="false"
     fit-margin-top="0"
     fit-margin-left="0"
     fit-margin-right="0"
     fit-margin-bottom="0"
     inkscape:window-width="1366"
     inkscape:window-height="674"
     inkscape:window-x="0"
     inkscape:window-y="26"
     inkscape:window-maximized="1"
     inkscape:pagecheckerboard="true" />
  <metadata
     id="metadata5">
    <rdf:RDF>
      <cc:Work
         rdf:about="">
        <dc:format>image/svg+xml</dc:format>
        <dc:type
           rdf:resource="http://purl.org/dc/dcmitype/StillImage" />
        <dc:title />
      </cc:Work>
    </rdf:RDF>
  </metadata>
  <g
     inkscape:label="Layer 1"
     inkscape:groupmode="layer"
     id="layer1"
     transform="translate(-122.70998,-169.48973)">
    <rect
       style="opacity:1;fill:#ffffff;fill-opacity:1;fill-rule:nonzero;stroke:none;stroke-width:11.13770771;stroke-linecap:butt;stroke-linejoin:bevel;stroke-miterlimit:4;stroke-dasharray:none;stroke-opacity:1;paint-order:markers fill stroke"
       id="rect988"
       width="36.777084"
       height="36.777077"
       x="122.70998"
       y="169.48973" />
    <g
       id="g957"
       transform="translate(36.843901,36.777081)">
      <path
         style="fill:#894c84;fill-opacity:1;stroke-width:0.26458335"
         d="m 85.866075,151.10119 v -18.38854 h 18.388535 18.38855 v 18.38854 18.38854 H 104.25461 85.866075 Z m 26.438455,15.80886 c 0.33175,-1.2416 1.87196,-7.73188 1.87196,-7.88822 0,-0.0635 -0.23231,-0.11543 -0.51625,-0.11543 -0.4313,0 -0.59159,0.35057 -0.97403,2.13031 -0.25207,1.17302 -0.53988,1.97556 -0.64047,1.78594 -0.10047,-0.18941 -0.33884,-1.14805 -0.52971,-2.13031 -0.31443,-1.61812 -0.40729,-1.78594 -0.98826,-1.78594 -0.48027,0 -0.60027,0.10673 -0.47806,0.42521 0.0897,0.23387 0.4689,1.63133 0.84258,3.10547 0.63817,2.51757 0.66249,3.0321 0.2256,4.77283 -0.1455,0.57969 -0.0847,0.69232 0.37388,0.69232 0.40933,0 0.61462,-0.25061 0.81276,-0.99218 z m -3.20889,-2.72627 c 0.0754,-1.15733 0.0258,-1.24939 -1.25677,-2.33086 -1.54123,-1.29958 -1.71005,-1.88819 -0.54155,-1.88819 0.67028,0 0.79375,0.1029 0.79375,0.66146 0,0.48507 0.14111,0.66146 0.52917,0.66146 0.42226,0 0.52917,-0.17639 0.52917,-0.87312 0,-1.17596 -0.40793,-1.50813 -1.85209,-1.50813 -1.41358,0 -1.85208,0.33358 -1.85208,1.40894 0,0.59233 0.31043,1.05556 1.32292,1.97404 1.5592,1.41445 1.73319,2.17327 0.49832,2.17327 -0.7369,0 -0.81115,-0.0703 -0.69815,-0.66146 0.106,-0.5545 0.0254,-0.66146 -0.49832,-0.66146 -0.53042,0 -0.62477,0.13186 -0.62477,0.87313 0,1.25396 0.42099,1.54327 2.11472,1.45327 1.40002,0.009 1.4492,0.0446 1.53568,-1.28235 z m 9.52555,-0.0135 c 0.0769,-1.18501 0.0424,-1.24642 -1.25677,-2.23718 -1.54655,-1.17943 -1.76383,-1.96835 -0.5421,-1.96835 0.67028,0 0.79375,0.1029 0.79375,0.66146 0,0.48507 0.14111,0.66146 0.52917,0.66146 0.42226,0 0.52917,-0.17639 0.52917,-0.87312 0,-1.17596 -0.40793,-1.50813 -1.85209,-1.50813 -1.4369,0 -1.85208,0.33255 -1.85208,1.48349 0,0.69411 0.24069,1.05 1.32292,1.95609 1.54423,1.29291 1.75017,2.11667 0.52916,2.11667 -0.67027,0 -0.79375,-0.10289 -0.79375,-0.66146 0,-0.48507 -0.14111,-0.66146 -0.52916,-0.66146 -0.40828,0 -0.52917,0.17639 -0.52917,0.77211 0,1.49643 0.18005,1.63991 1.95105,1.55477 1.68524,-0.0775 1.59572,0.30867 1.69992,-1.29635 z m -27.423214,-6.44971 c 1.44856,-0.95861 2.319151,-2.50174 4.511704,-7.99706 1.057115,-2.64951 2.097668,-5.17471 2.189842,-4.99905 0.09217,0.17565 0.147839,1.83253 0.246201,3.06946 0.360007,4.52716 1.458587,8.35184 2.856127,9.94356 0.90064,1.02577 1.5073,1.13447 2.18041,0.39068 0.25568,-0.28252 1.51529,-2.95592 2.79914,-5.94089 1.28385,-2.98497 2.50882,-5.84154 2.66091,-6.10292 0.20849,-0.35832 0.22969,0.27855 0.23971,1.97415 0.0286,4.84503 0.88659,7.82308 2.70131,9.37641 1.67312,1.43214 3.02821,1.3789 4.64368,-0.18246 1.00153,-0.96798 1.07308,-1.5646 0.30433,-2.53763 l -0.55557,-0.70319 c -3.20545,-6.18013 -2.07275,-10.4893 -2.0726,-13.54365 l 0.0918,-1.40584 c 0.0872,-0.73646 0.0915,-1.51389 0.009,-1.72761 -0.2083,-0.54281 -2.46808,-0.5089 -3.6501,0.0548 -1.15662,0.55156 -2.30024,2.67269 -4.65503,8.63395 -0.90868,2.30038 -1.74612,4.08632 -1.86097,3.96875 -0.11484,-0.11756 -0.51493,-2.30675 -0.88908,-4.86486 -1.08684,-7.43085 -1.71988,-8.50074 -4.714491,-8.3119 -1.91288,0.12063 -2.924041,0.93203 -1.844851,1.45664 0.46223,0.25203 0.324104,0.69414 0.324104,0.90823 0,0.9493 -6.058696,14.20536 -7.810944,17.08987 -1.168197,1.92306 -1.087835,2.51117 0.312095,2.28399 0.527142,-0.0855 1.419417,-0.46059 1.982833,-0.83345 z"
         id="path959"
         inkscape:connector-curvature="0"
         sodipodi:nodetypes="ccccccccccssccsscccscccsssssscscssccccsssssscssssccccscsccsccccccccccccsccssccc" />
      <path
         style="fill:#ef7e19;fill-opacity:1;stroke-width:0.26458335"
         d="m 118.48002,154.38963 c -0.21263,-0.77937 -0.60053,-0.53763 -3.77862,-0.53763 -4.23812,0 -4.51001,0.21718 -2.65413,-2.44723 2.45703,-3.52744 3.4906,-5.92399 2.80851,-6.96499 -0.4719,-0.72022 -1.01247,-0.62449 -1.92709,0.34127 -0.84859,0.89603 -1.86894,0.41779 -1.86894,-0.95587 0,-2.01205 2.80561,-3.99992 5.38938,-3.9922 1.61399,0.005 2.43642,0.4039 3.21581,1.56044 1.12027,1.66236 0.73145,3.8557 -1.134,6.39695 -1.54383,2.10311 -0.73385,3.61259 0.95572,1.78109 1.46292,-1.68793 1.55952,0.86073 1.49098,1.70283 -0.2309,2.69619 -2.07701,4.65709 -2.49762,3.11534 z"
         id="path961"
         inkscape:connector-curvature="0"
         sodipodi:nodetypes="sscccscccccs" />
    </g>
  </g>
</svg>
